# xmcd
#
# Track frame offsets: 
#        150
#        18910
#        36197
#        61965
#        82125
#        92715
#        114980
#        138007
#        157060
#        173620
#        184417
#        205595
#        232910
#
# Disc length: 3332 seconds
#
# Revision: 2
# Processed by: cddbd v1.5.2PL0 Copyright (c) Steve Scherf et al.
# Submitted via: ExactAudioCopy v0.90b4
#
DISCID=a00d020d
DTITLE=Dixie Chicks - Home (Limited Edition)
DYEAR=2002
DGENRE=Country
TTITLE0=Long Time Gone
TTITLE1=Landslide
TTITLE2=Travelin Soldier
TTITLE3=Truth No 2
TTITLE4=White Trash Wedding
TTITLE5=A Home
TTITLE6=More Love
TTITLE7=I Believe In Love
TTITLE8=Tortured Tangled Hearts
TTITLE9=Lil Jack Slade
TTITLE10=Godspeed (Sweet Dreams)
TTITLE11=Top Of The World
TTITLE12=Landslide (Sheryl Crow Remix)
EXTD=
EXTT0=
EXTT1=
EXTT2=
EXTT3=
EXTT4=
EXTT5=
EXTT6=
EXTT7=
EXTT8=
EXTT9=
EXTT10=
EXTT11=
EXTT12=
PLAYORDER=
